<?xml version="1.0" encoding="utf-8"?>
<!-- Generator: Adobe Illustrator 25.1.0, SVG Export Plug-In . SVG Version: 6.00 Build 0)  -->
<svg version="1.1" xmlns="http://www.w3.org/2000/svg" xmlns:xlink="http://www.w3.org/1999/xlink" x="0px" y="0px"
	 viewBox="0 0 77.2 76.1" style="enable-background:new 0 0 77.2 76.1;" xml:space="preserve">
<style type="text/css">
	.st0{fill:#1D4F7A;}
	.st1{fill-rule:evenodd;clip-rule:evenodd;fill:#1D4F7A;}
	.st2{fill-rule:evenodd;clip-rule:evenodd;fill:#91CA68;}
	.st3{fill-rule:evenodd;clip-rule:evenodd;fill:#EF364A;}
	.st4{fill-rule:evenodd;clip-rule:evenodd;fill:#FFFFFF;}
	.st5{fill-rule:evenodd;clip-rule:evenodd;fill:#383838;}
</style>
<g id="Layer_1">
</g>
<g id="Layer_2">
	<rect x="17.6" y="13.7" transform="matrix(0.7071 0.7071 -0.7071 0.7071 18.0541 -9.7509)" class="st1" width="6.4" height="6.4"/>
	<polygon class="st2" points="20.8,12.4 23.3,13.4 27.8,17.9 25.3,16.9 	"/>
	<polygon class="st3" points="27.8,17.9 23.3,22.4 20.8,21.4 25.3,16.9 	"/>
	
		<rect x="20.9" y="19.8" transform="matrix(0.7071 0.7071 -0.7071 0.7071 32.4516 -14.044)" class="st1" width="24.6" height="24.6"/>
	<polygon class="st2" points="33.2,14.8 42.9,18.6 60.3,36 50.6,32.2 	"/>
	<polygon class="st3" points="60.3,36 42.8,53.4 33.2,49.5 50.6,32.2 	"/>
	<g id="svgg_1_">
		<path id="path0_1_" class="st4" d="M37,24.8c0,0-0.1,0.1-0.1,0.2c-0.5,1-1.4,1.8-2.7,2.5c-1.3,0.7-2.1,1.5-2.8,2.8
			c-0.4,0.8-0.7,1.2-1.2,1.7s-0.9,0.8-1.7,1.2c-1.2,0.6-2.1,1.4-2.6,2.5l-0.1,0.2l0.6,0.6l0.6,0.6l0-0.1c0.7-1.3,1.5-2,2.8-2.7
			c1.4-0.7,2.1-1.5,2.8-2.8c0.7-1.4,1.5-2.2,2.8-2.8c1.3-0.6,2.1-1.4,2.7-2.5l0.1-0.2l-0.6-0.6C37.2,25.1,37,24.8,37,24.8
			 M39.4,27.3c-0.5,1-1.5,2-2.7,2.6c-1.4,0.7-2.2,1.5-2.9,2.8c-0.7,1.3-1.5,2.2-2.9,2.9c-1.2,0.6-2.2,1.6-2.7,2.6l0,0.1l0.6,0.6
			l0.6,0.6l0.1-0.2c0.5-1,1.4-1.9,2.7-2.5c0.9-0.4,1.1-0.6,1.7-1.2s0.8-0.8,1.2-1.7c0.7-1.3,1.5-2.1,2.8-2.8c1.2-0.6,2-1.3,2.6-2.4
			l0.2-0.3L40,27.8C39.5,27.3,39.4,27.2,39.4,27.3"/>
	</g>
	
		<rect x="50.5" y="17.8" transform="matrix(0.7071 0.7071 -0.7071 0.7071 32.1631 -32.4691)" class="st1" width="9.5" height="9.5"/>
	<polygon class="st2" points="55.3,15.9 59,17.4 65.7,24.1 62,22.6 	"/>
	<polygon class="st3" points="65.7,24.1 59,30.8 55.3,29.3 62,22.6 	"/>
	<rect x="19.8" y="43.1" transform="matrix(0.7071 0.7071 -0.7071 0.7071 39.0144 -2.48)" class="st1" width="5.4" height="5.4"/>
	<polygon class="st2" points="22.5,42 24.6,42.9 28.5,46.7 26.3,45.9 	"/>
	<polygon class="st3" points="28.5,46.7 24.6,50.5 22.5,49.7 26.3,45.9 	"/>
	
		<rect x="46.9" y="44.8" transform="matrix(0.7071 0.7071 -0.7071 0.7071 47.0594 -20.7318)" class="st1" width="3.3" height="3.3"/>
	<polygon class="st2" points="48.6,44.1 49.9,44.6 52.2,47 50.9,46.4 	"/>
	<polygon class="st3" points="52.2,47 49.9,49.3 48.6,48.8 50.9,46.4 	"/>
	<ellipse class="st5" cx="38.5" cy="62.4" rx="24.6" ry="2.7"/>
</g>
</svg>
