<?xml version="1.0" encoding="utf-8"?>
<!-- Generator: Adobe Illustrator 25.1.0, SVG Export Plug-In . SVG Version: 6.00 Build 0)  -->
<svg version="1.1" xmlns="http://www.w3.org/2000/svg" xmlns:xlink="http://www.w3.org/1999/xlink" x="0px" y="0px"
	 viewBox="0 0 112.8 76.1" style="enable-background:new 0 0 112.8 76.1;" xml:space="preserve"
	 width="400">
<style type="text/css">
	.st0{fill:#1D4F7A;}
	.st1{fill-rule:evenodd;clip-rule:evenodd;fill:#1D4F7A;}
	.st2{fill-rule:evenodd;clip-rule:evenodd;fill:#91CA68;}
	.st3{fill-rule:evenodd;clip-rule:evenodd;fill:#EF364A;}
	.st4{fill-rule:evenodd;clip-rule:evenodd;fill:#FFFFFF;}
	.st5{fill-rule:evenodd;clip-rule:evenodd;fill:#383838;}
</style>
<g id="Layer_1">
	<g>
		<path class="st0" d="M58.3,45.7l-1.8-5.2h-8.2l-1.8,5.2h-3.2L50,26.6c0.4-1.1,1.2-1.9,2.4-1.9c1.3,0,2,0.8,2.4,1.9l6.8,19.1H58.3z
			 M52.2,28.3l-3,9.3h6.3L52.2,28.3z"/>
		<path class="st0" d="M63.1,45.7V24.9h3v20.8H63.1z"/>
		<path class="st0" d="M74.9,27.9c-2.3,0-2.6,0.9-2.6,3c0,0.9-0.1,1.7,0.7,2.3c0.6,0.5,1.2,0.5,1.9,0.5h3.2c2.7,0,4.5,1.5,4.5,4.3
			v3.3c0,2.9-1.9,4.4-4.7,4.4h-8.7v-3H77c2.2,0,2.6-0.7,2.6-2.7v-1.1c0-1.7-1-2.1-2.5-2.1h-3.2c-2.5,0-4.7-1.5-4.7-4.2v-3.2
			c0-1.3,0.5-2.6,1.5-3.5c0.9-0.8,1.9-0.9,3.1-0.9h8.8v3H74.9z"/>
		<path class="st0" d="M93.2,27.9v17.8h-3V27.9H85v-3h13.3v3H93.2z"/>
	</g>
	<rect x="14.4" y="27" transform="matrix(0.7071 0.7071 -0.7071 0.7071 25.1064 -3.0181)" class="st1" width="3.5" height="3.5"/>
	<polygon class="st2" points="16.2,26.3 17.6,26.9 20,29.3 18.7,28.8 	"/>
	<polygon class="st3" points="20,29.3 17.6,31.8 16.2,31.3 18.7,28.8 	"/>
	
		<rect x="16.2" y="30.4" transform="matrix(0.7071 0.7071 -0.7071 0.7071 33.0241 -5.379)" class="st1" width="13.5" height="13.5"/>
	<polygon class="st2" points="23,27.6 28.3,29.7 37.9,39.3 32.6,37.2 	"/>
	<polygon class="st3" points="37.9,39.3 28.3,48.9 23,46.7 32.6,37.2 	"/>
	<g id="svgg">
		<path id="path0" class="st4" d="M25.1,33.1c0,0,0,0.1-0.1,0.1c-0.3,0.5-0.8,1-1.5,1.4c-0.7,0.4-1.2,0.8-1.5,1.5
			c-0.2,0.4-0.4,0.6-0.7,0.9c-0.3,0.3-0.5,0.4-0.9,0.7c-0.7,0.3-1.1,0.8-1.5,1.4l-0.1,0.1l0.3,0.3l0.3,0.3l0,0
			c0.4-0.7,0.8-1.1,1.5-1.5c0.8-0.4,1.2-0.8,1.5-1.5c0.4-0.7,0.8-1.2,1.5-1.6c0.7-0.4,1.1-0.8,1.5-1.4l0.1-0.1l-0.3-0.3
			C25.2,33.3,25.1,33.1,25.1,33.1 M26.4,34.5c-0.3,0.6-0.8,1.1-1.5,1.5c-0.8,0.4-1.2,0.8-1.6,1.6c-0.4,0.7-0.8,1.2-1.6,1.6
			c-0.7,0.3-1.2,0.9-1.5,1.4l0,0l0.3,0.3l0.3,0.3l0.1-0.1c0.3-0.6,0.8-1,1.5-1.4c0.5-0.2,0.6-0.3,0.9-0.7c0.3-0.3,0.4-0.4,0.7-0.9
			c0.4-0.7,0.8-1.2,1.6-1.5c0.7-0.3,1.1-0.7,1.4-1.3l0.1-0.2l-0.3-0.3C26.5,34.5,26.4,34.5,26.4,34.5"/>
	</g>
	
		<rect x="32.5" y="29.3" transform="matrix(0.7071 0.7071 -0.7071 0.7071 32.8655 -15.5118)" class="st1" width="5.2" height="5.2"/>
	<polygon class="st2" points="35.2,28.2 37.2,29 40.9,32.7 38.9,31.9 	"/>
	<polygon class="st3" points="40.9,32.7 37.2,36.4 35.2,35.6 38.9,31.9 	"/>
	<rect x="15.6" y="43.2" transform="matrix(0.7071 0.7071 -0.7071 0.7071 36.6333 0.9805)" class="st1" width="3" height="3"/>
	<polygon class="st2" points="17.1,42.6 18.3,43.1 20.4,45.2 19.2,44.7 	"/>
	<polygon class="st3" points="20.4,45.2 18.3,47.3 17.1,46.8 19.2,44.7 	"/>
	<rect x="30.5" y="44.1" transform="matrix(0.7071 0.7071 -0.7071 0.7071 41.0576 -9.0569)" class="st1" width="1.8" height="1.8"/>
	<polygon class="st2" points="31.5,43.7 32.2,44 33.5,45.3 32.8,45 	"/>
	<polygon class="st3" points="33.5,45.3 32.2,46.6 31.5,46.3 32.8,45 	"/>
	<ellipse class="st5" cx="25.9" cy="53.8" rx="13.5" ry="1.5"/>
	<g>
		<path class="st0" d="M43,56.9v-8h0.4v8H43z M47.7,56.9l-3.8-3.6c-0.1-0.1-0.4-0.3-0.4-0.5c0-0.2,0.3-0.4,0.4-0.5l3.7-3.5h0.6
			l-4.2,3.9l4.3,4.1H47.7z"/>
		<path class="st0" d="M54.5,56.5c-0.4,0.3-0.7,0.4-1.2,0.4h-1.7h-0.3c-0.5,0-0.9-0.1-1.2-0.4c-0.6-0.5-0.6-0.9-0.6-1.6v-6h0.4v5.8
			c0,1.3,0.6,1.8,1.8,1.8h1.3c1.3,0,1.8-0.4,1.8-1.8v-5.9h0.4v6C55.1,55.5,55,56,54.5,56.5z"/>
		<path class="st0" d="M62.4,55c0,0.5,0,0.9-0.4,1.3c-0.3,0.4-0.9,0.6-1.4,0.6h-4v-8h3.8c0.6,0,1,0,1.4,0.5c0.3,0.4,0.5,0.8,0.5,1.3
			v0.7c0,0.8-0.2,1.2-0.9,1.6c0.8,0.3,0.9,0.8,0.9,1.7V55z M62,54.5c0-0.9-0.5-1.3-1.4-1.3h-3.5v3.4h3.5c1,0,1.5-0.5,1.5-1.5V54.5z
			 M61.7,49.7c-0.3-0.4-0.6-0.4-1.1-0.4h-3.5v3.4h3.5c1.1,0,1.5-0.5,1.5-1.5C62,50.7,62,50.2,61.7,49.7z"/>
		<path class="st0" d="M65.8,56.9c-1.1,0-1.8-0.7-1.8-1.8v-4.4c0-1.1,0.8-1.8,1.9-1.8h3.3v0.4h-3.3c-0.4,0-0.8,0.1-1.1,0.4
			c-0.3,0.3-0.4,0.6-0.4,1v2h4.8v0.4h-4.8v1.9c0,0.9,0.6,1.4,1.5,1.4h3.3v0.4H65.8z"/>
	</g>
</g>
<g id="Layer_2">
</g>
</svg>
